<svg width="141" height="29" viewBox="0 0 141 29" fill="none" xmlns="http://www.w3.org/2000/svg">
<path d="M41.3522 18.606H36.3483L35.5202 21H32.8742L37.3923 8.418H40.3263L44.8442 21H42.1803L41.3522 18.606ZM40.6683 16.59L38.8503 11.334L37.0322 16.59H40.6683Z" fill="white"/>
<path d="M49.053 7.68V21H46.533V7.68H49.053Z" fill="white"/>
<path d="M50.8948 15.978C50.8948 14.97 51.0928 14.076 51.4888 13.296C51.8968 12.516 52.4428 11.916 53.1268 11.496C53.8228 11.076 54.5968 10.866 55.4488 10.866C56.1928 10.866 56.8408 11.016 57.3928 11.316C57.9568 11.616 58.4068 11.994 58.7428 12.45V11.028H61.2808V21H58.7428V19.542C58.4188 20.01 57.9688 20.4 57.3928 20.712C56.8288 21.012 56.1748 21.162 55.4308 21.162C54.5908 21.162 53.8228 20.946 53.1268 20.514C52.4428 20.082 51.8968 19.476 51.4888 18.696C51.0928 17.904 50.8948 16.998 50.8948 15.978ZM58.7428 16.014C58.7428 15.402 58.6228 14.88 58.3828 14.448C58.1428 14.004 57.8188 13.668 57.4108 13.44C57.0028 13.2 56.5648 13.08 56.0968 13.08C55.6288 13.08 55.1968 13.194 54.8008 13.422C54.4048 13.65 54.0808 13.986 53.8288 14.43C53.5888 14.862 53.4688 15.378 53.4688 15.978C53.4688 16.578 53.5888 17.106 53.8288 17.562C54.0808 18.006 54.4048 18.348 54.8008 18.588C55.2088 18.828 55.6408 18.948 56.0968 18.948C56.5648 18.948 57.0028 18.834 57.4108 18.606C57.8188 18.366 58.1428 18.03 58.3828 17.598C58.6228 17.154 58.7428 16.626 58.7428 16.014Z" fill="white"/>
<path d="M69.268 10.884C70.456 10.884 71.416 11.262 72.148 12.018C72.88 12.762 73.246 13.806 73.246 15.15V21H70.726V15.492C70.726 14.7 70.528 14.094 70.132 13.674C69.736 13.242 69.196 13.026 68.512 13.026C67.816 13.026 67.264 13.242 66.856 13.674C66.46 14.094 66.262 14.7 66.262 15.492V21H63.742V11.028H66.262V12.27C66.598 11.838 67.024 11.502 67.54 11.262C68.068 11.01 68.644 10.884 69.268 10.884Z" fill="white"/>
<path d="M87.0595 14.556C87.7675 14.688 88.3495 15.042 88.8055 15.618C89.2615 16.194 89.4895 16.854 89.4895 17.598C89.4895 18.27 89.3215 18.864 88.9855 19.38C88.6615 19.884 88.1875 20.28 87.5635 20.568C86.9395 20.856 86.2015 21 85.3495 21H79.9314V8.436H85.1155C85.9675 8.436 86.6995 8.574 87.3115 8.85C87.9355 9.126 88.4035 9.51 88.7155 10.002C89.0395 10.494 89.2015 11.052 89.2015 11.676C89.2015 12.408 89.0035 13.02 88.6075 13.512C88.2235 14.004 87.7075 14.352 87.0595 14.556ZM82.4515 13.62H84.7555C85.3555 13.62 85.8175 13.488 86.1415 13.224C86.4655 12.948 86.6275 12.558 86.6275 12.054C86.6275 11.55 86.4655 11.16 86.1415 10.884C85.8175 10.608 85.3555 10.47 84.7555 10.47H82.4515V13.62ZM84.9895 18.948C85.6015 18.948 86.0755 18.804 86.4115 18.516C86.7595 18.228 86.9335 17.82 86.9335 17.292C86.9335 16.752 86.7535 16.332 86.3935 16.032C86.0335 15.72 85.5475 15.564 84.9355 15.564H82.4515V18.948H84.9895Z" fill="white"/>
<path d="M90.8499 15.978C90.8499 14.97 91.0479 14.076 91.4439 13.296C91.8519 12.516 92.3979 11.916 93.0819 11.496C93.7779 11.076 94.5519 10.866 95.4039 10.866C96.1479 10.866 96.7959 11.016 97.3479 11.316C97.9119 11.616 98.3619 11.994 98.6979 12.45V11.028H101.236V21H98.6979V19.542C98.3739 20.01 97.9239 20.4 97.3479 20.712C96.7839 21.012 96.1299 21.162 95.3859 21.162C94.5459 21.162 93.7779 20.946 93.0819 20.514C92.3979 20.082 91.8519 19.476 91.4439 18.696C91.0479 17.904 90.8499 16.998 90.8499 15.978ZM98.6979 16.014C98.6979 15.402 98.5779 14.88 98.3379 14.448C98.0979 14.004 97.7739 13.668 97.3659 13.44C96.9579 13.2 96.5199 13.08 96.0519 13.08C95.5839 13.08 95.1519 13.194 94.7559 13.422C94.3599 13.65 94.0359 13.986 93.7839 14.43C93.5439 14.862 93.4239 15.378 93.4239 15.978C93.4239 16.578 93.5439 17.106 93.7839 17.562C94.0359 18.006 94.3599 18.348 94.7559 18.588C95.1639 18.828 95.5959 18.948 96.0519 18.948C96.5199 18.948 96.9579 18.834 97.3659 18.606C97.7739 18.366 98.0979 18.03 98.3379 17.598C98.5779 17.154 98.6979 16.626 98.6979 16.014Z" fill="white"/>
<path d="M113.237 11.028L107.063 25.716H104.381L106.541 20.748L102.545 11.028H105.371L107.945 17.994L110.555 11.028H113.237Z" fill="white"/>
<path d="M119.024 21.162C118.064 21.162 117.2 20.952 116.432 20.532C115.664 20.1 115.058 19.494 114.614 18.714C114.182 17.934 113.966 17.034 113.966 16.014C113.966 14.994 114.188 14.094 114.632 13.314C115.088 12.534 115.706 11.934 116.486 11.514C117.266 11.082 118.136 10.866 119.096 10.866C120.056 10.866 120.926 11.082 121.706 11.514C122.486 11.934 123.098 12.534 123.542 13.314C123.998 14.094 124.226 14.994 124.226 16.014C124.226 17.034 123.992 17.934 123.524 18.714C123.068 19.494 122.444 20.1 121.652 20.532C120.872 20.952 119.996 21.162 119.024 21.162ZM119.024 18.966C119.48 18.966 119.906 18.858 120.302 18.642C120.71 18.414 121.034 18.078 121.274 17.634C121.514 17.19 121.634 16.65 121.634 16.014C121.634 15.066 121.382 14.34 120.878 13.836C120.386 13.32 119.78 13.062 119.06 13.062C118.34 13.062 117.734 13.32 117.242 13.836C116.762 14.34 116.522 15.066 116.522 16.014C116.522 16.962 116.756 17.694 117.224 18.21C117.704 18.714 118.304 18.966 119.024 18.966Z" fill="white"/>
<path d="M128.594 7.68V21H126.074V7.68H128.594Z" fill="white"/>
<path d="M135.512 21.162C134.552 21.162 133.688 20.952 132.92 20.532C132.152 20.1 131.546 19.494 131.102 18.714C130.67 17.934 130.454 17.034 130.454 16.014C130.454 14.994 130.676 14.094 131.12 13.314C131.576 12.534 132.194 11.934 132.974 11.514C133.754 11.082 134.624 10.866 135.584 10.866C136.544 10.866 137.414 11.082 138.194 11.514C138.974 11.934 139.586 12.534 140.03 13.314C140.486 14.094 140.714 14.994 140.714 16.014C140.714 17.034 140.48 17.934 140.012 18.714C139.556 19.494 138.932 20.1 138.14 20.532C137.36 20.952 136.484 21.162 135.512 21.162ZM135.512 18.966C135.968 18.966 136.394 18.858 136.79 18.642C137.198 18.414 137.522 18.078 137.762 17.634C138.002 17.19 138.122 16.65 138.122 16.014C138.122 15.066 137.87 14.34 137.366 13.836C136.874 13.32 136.268 13.062 135.548 13.062C134.828 13.062 134.222 13.32 133.73 13.836C133.25 14.34 133.01 15.066 133.01 16.014C133.01 16.962 133.244 17.694 133.712 18.21C134.192 18.714 134.792 18.966 135.512 18.966Z" fill="white"/>
<path d="M17.144 24.1911L11.1973 19.072L5.25061 24.1911L2.875 26.4635L0 29L10.3803 1.77551L11.1973 0L23 29L20.7 27.2245L17.144 24.1911ZM15.1467 19.072L11.1973 9.10517L7.29337 19.072L11.1973 15.9114L15.1467 19.072Z" fill="url(#paint0_linear_56820_85)"/>
<defs>
<linearGradient id="paint0_linear_56820_85" x1="11.5" y1="22.3207" x2="11.5" y2="40.0758" gradientUnits="userSpaceOnUse">
<stop stop-color="white"/>
<stop offset="1" stop-color="white" stop-opacity="0"/>
</linearGradient>
</defs>
</svg>